ffmpeg started on 2026-03-28 at 16:03:33
Report written to "D:\Convert\FFMetrics\reports\ssim_report-6.txt"
Log level: 32
Command line:
ffmpeg -hide_banner -nostdin -r 24000/1001 -i "F:\\\xc0\xed\xe8\xec\xe5\\\xce\xed\xe3\xee\xe8\xed\xe3\xe8\\!_40_\xce\xf1\xe5\xed\xfc_2025\\JamClub\\\xcc\xeb\xe0\xe4\xf8\xe0\xff \xf1\xe5\xf1\xf2\xf0\xe0 \xec\xee\xe5\xe3\xee \xe4\xf0\xf3\xe3\xe0 \xe4\xee\xf1\xe0\xe6\xe4\xe0\xe5\xf2\\JamClub_Tomodachi_no_Imouto_ga_Ore_ni_dake_Uzai_06_1080p_HEVC.mkv" -r 24000/1001 -i "F:\\\xc0\xed\xe8\xec\xe5\\\xce\xed\xe3\xee\xe8\xed\xe3\xe8\\!_40_\xce\xf1\xe5\xed\xfc_2025\\JamClub\\\xcc\xeb\xe0\xe4\xf8\xe0\xff \xf1\xe5\xf1\xf2\xf0\xe0 \xec\xee\xe5\xe3\xee \xe4\xf0\xf3\xe3\xe0 \xe4\xee\xf1\xe0\xe6\xe4\xe0\xe5\xf2\\JamClub_Tomodachi_no_Imouto_ga_Ore_ni_dake_Uzai_06_1080p.mp4" -lavfi "[0:v]settb=AVTB,setpts=PTS-STARTPTS,format=pix_fmts=yuv420p10le,fps=24000/1001,scale=1920:1080:flags=lanczos:param0=3:out_range=limited:out_color_matrix=bt709:out_chroma_loc=left,setsar=1/1,setdar=(1920/1080)*(1/1),colorspace=format=yuv420p10:range=tv:primaries=bt709:trc=bt709:space=bt709:fast=0[main];[1:v]settb=AVTB,setpts=PTS-STARTPTS,format=pix_fmts=yuv420p,fps=24000/1001,scale=1920:1080:flags=lanczos:param0=3:out_range=limited:out_color_matrix=bt709:out_chroma_loc=left,setsar=1/1,setdar=(1920/1080)*(1/1),colorspace=format=yuv420p:range=tv:primaries=bt709:trc=bt709:space=bt709:fast=0[ref];[main][ref]ssim=eof_action=endall:stats_file='D\\:/Convert/FFMetrics/logs/ssim_logfile-6.txt'" -f null -
Input #0, matroska,webm, from 'F:\Аниме\Онгоинги\!_40_Осень_2025\JamClub\Младшая сестра моего друга досаждает\JamClub_Tomodachi_no_Imouto_ga_Ore_ni_dake_Uzai_06_1080p_HEVC.mkv':
  Metadata:
    COMPATIBLE_BRANDS: isomiso2avc1mp41
    MAJOR_BRAND     : isom
    MINOR_VERSION   : 512
    ENCODER         : Lavf61.7.100
  Duration: 00:23:49.53, start: -0.021000, bitrate: 1047 kb/s
  Stream #0:0: Video: hevc (Main 10), yuv420p10le(tv, bt709, progressive), 1920x1080 [SAR 1:1 DAR 16:9], 23.98 fps, 23.98 tbr, 1k tbn (default)
      Metadata:
        HANDLER_NAME    : VideoHandler
        VENDOR_ID       : [0][0][0][0]
        ENCODER         : Lavc61.19.100 libx265
        BPS             : 851238
        DURATION        : 00:23:49.427708333
        NUMBER_OF_FRAMES: 34272
        NUMBER_OF_BYTES : 152097874
        _STATISTICS_WRITING_APP: mkvpropedit v94.0 ('Initiate') 64-bit
        _STATISTICS_WRITING_DATE_UTC: 2026-03-28 10:37:55
        _STATISTICS_TAGS: BPS DURATION NUMBER_OF_FRAMES NUMBER_OF_BYTES
  Stream #0:1(eng): Audio: aac (LC), 48000 Hz, stereo, fltp (default)
      Metadata:
        HANDLER_NAME    : SoundHandler
        VENDOR_ID       : [0][0][0][0]
        ENCODER         : Lavc61.19.100 aac
        BPS             : 192395
        DURATION        : 00:23:49.507000000
        NUMBER_OF_FRAMES: 67009
        NUMBER_OF_BYTES : 34378810
        _STATISTICS_WRITING_APP: mkvpropedit v94.0 ('Initiate') 64-bit
        _STATISTICS_WRITING_DATE_UTC: 2026-03-28 10:37:55
        _STATISTICS_TAGS: BPS DURATION NUMBER_OF_FRAMES NUMBER_OF_BYTES
Input #1, mov,mp4,m4a,3gp,3g2,mj2, from 'F:\Аниме\Онгоинги\!_40_Осень_2025\JamClub\Младшая сестра моего друга досаждает\JamClub_Tomodachi_no_Imouto_ga_Ore_ni_dake_Uzai_06_1080p.mp4':
  Metadata:
    major_brand     : isom
    minor_version   : 512
    compatible_brands: isomiso2avc1mp41
    encoder         : Lavf60.16.100
  Duration: 00:23:49.51, start: 0.000000, bitrate: 3651 kb/s
  Stream #1:0[0x1](und): Video: h264 (High) (avc1 / 0x31637661), yuv420p(tv, bt709, progressive), 1920x1080 [SAR 1:1 DAR 16:9], 3453 kb/s, 23.98 fps, 23.98 tbr, 90k tbn (default)
      Metadata:
        handler_name    : VideoHandler
        vendor_id       : [0][0][0][0]
  Stream #1:1[0x2](eng): Audio: aac (LC) (mp4a / 0x6134706D), 48000 Hz, stereo, fltp, 191 kb/s (default)
      Metadata:
        handler_name    : SoundHandler
        vendor_id       : [0][0][0][0]
Stream mapping:
  Stream #0:0 (hevc) -> settb:default
  Stream #1:0 (h264) -> settb:default
  ssim:default -> Stream #0:0 (wrapped_avframe)
  Stream #0:1 -> #0:1 (aac (native) -> pcm_s16le (native))
Output #0, null, to 'pipe:':
  Metadata:
    COMPATIBLE_BRANDS: isomiso2avc1mp41
    MAJOR_BRAND     : isom
    MINOR_VERSION   : 512
    encoder         : Lavf61.7.100
  Stream #0:0: Video: wrapped_avframe, yuv420p10le(tv, bt709, progressive), 1920x1080 [SAR 1:1 DAR 16:9], q=2-31, 200 kb/s, 23.98 fps, 23.98 tbn
      Metadata:
        encoder         : Lavc61.19.100 wrapped_avframe
  Stream #0:1(eng): Audio: pcm_s16le, 48000 Hz, stereo, s16, 1536 kb/s (default)
      Metadata:
        HANDLER_NAME    : SoundHandler
        VENDOR_ID       : [0][0][0][0]
        _STATISTICS_TAGS: BPS DURATION NUMBER_OF_FRAMES NUMBER_OF_BYTES
        BPS             : 192395
        DURATION        : 00:23:49.507000000
        NUMBER_OF_FRAMES: 67009
        NUMBER_OF_BYTES : 34378810
        _STATISTICS_WRITING_APP: mkvpropedit v94.0 ('Initiate') 64-bit
        _STATISTICS_WRITING_DATE_UTC: 2026-03-28 10:37:55
        encoder         : Lavc61.19.100 pcm_s16le
frame=  106 fps=0.0 q=-0.0 size=N/A time=00:00:04.42 bitrate=N/A speed=8.59x    frame=  250 fps=243 q=-0.0 size=N/A time=00:00:10.42 bitrate=N/A speed=10.2x    frame=  415 fps=270 q=-0.0 size=N/A time=00:00:17.30 bitrate=N/A speed=11.2x    frame=  595 fps=288 q=-0.0 size=N/A time=00:00:24.81 bitrate=N/A speed=  12x    frame=  766 fps=297 q=-0.0 size=N/A time=00:00:31.94 bitrate=N/A speed=12.4x    frame=  947 fps=307 q=-0.0 size=N/A time=00:00:39.49 bitrate=N/A speed=12.8x    frame= 1134 fps=315 q=-0.0 size=N/A time=00:00:47.29 bitrate=N/A speed=13.1x    frame= 1320 fps=321 q=-0.0 size=N/A time=00:00:55.05 bitrate=N/A speed=13.4x    frame= 1511 fps=325 q=-0.0 size=N/A time=00:01:03.02 bitrate=N/A speed=13.6x    frame= 1691 fps=328 q=-0.0 size=N/A time=00:01:10.52 bitrate=N/A speed=13.7x    frame= 1877 fps=331 q=-0.0 size=N/A time=00:01:18.28 bitrate=N/A speed=13.8x    frame= 2059 fps=333 q=-0.0 size=N/A time=00:01:25.87 bitrate=N/A speed=13.9x    frame= 2237 fps=334 q=-0.0 size=N/A time=00:01:33.30 bitrate=N/A speed=13.9x    frame= 2432 fps=337 q=-0.0 size=N/A time=00:01:41.43 bitrate=N/A speed=  14x    frame= 2617 fps=338 q=-0.0 size=N/A time=00:01:49.15 bitrate=N/A speed=14.1x    frame= 2796 fps=339 q=-0.0 size=N/A time=00:01:56.61 bitrate=N/A speed=14.1x    frame= 2943 fps=336 q=-0.0 size=N/A time=00:02:02.74 bitrate=N/A speed=  14x    frame= 3083 fps=333 q=-0.0 size=N/A time=00:02:08.58 bitrate=N/A speed=13.9x    frame= 3252 fps=332 q=-0.0 size=N/A time=00:02:15.63 bitrate=N/A speed=13.8x    frame= 3413 fps=331 q=-0.0 size=N/A time=00:02:22.35 bitrate=N/A speed=13.8x    frame= 3599 fps=333 q=-0.0 size=N/A time=00:02:30.10 bitrate=N/A speed=13.9x    frame= 3753 fps=331 q=-0.0 size=N/A time=00:02:36.53 bitrate=N/A speed=13.8x    frame= 3933 fps=332 q=-0.0 size=N/A time=00:02:44.03 bitrate=N/A speed=13.8x    frame= 4104 fps=332 q=-0.0 size=N/A time=00:02:51.17 bitrate=N/A speed=13.8x    frame= 4274 fps=331 q=-0.0 size=N/A time=00:02:58.26 bitrate=N/A speed=13.8x    frame= 4408 fps=328 q=-0.0 size=N/A time=00:03:03.85 bitrate=N/A speed=13.7x    frame= 4554 fps=327 q=-0.0 size=N/A time=00:03:09.93 bitrate=N/A speed=13.6x    frame= 4703 fps=326 q=-0.0 size=N/A time=00:03:16.15 bitrate=N/A speed=13.6x    frame= 4861 fps=325 q=-0.0 size=N/A time=00:03:22.74 bitrate=N/A speed=13.5x    frame= 5036 fps=325 q=-0.0 size=N/A time=00:03:30.04 bitrate=N/A speed=13.6x    frame= 5213 fps=326 q=-0.0 size=N/A time=00:03:37.42 bitrate=N/A speed=13.6x    frame= 5403 fps=327 q=-0.0 size=N/A time=00:03:45.35 bitrate=N/A speed=13.6x    frame= 5587 fps=328 q=-0.0 size=N/A time=00:03:53.02 bitrate=N/A speed=13.7x    frame= 5782 fps=330 q=-0.0 size=N/A time=00:04:01.15 bitrate=N/A speed=13.7x    frame= 5969 fps=330 q=-0.0 size=N/A time=00:04:08.95 bitrate=N/A speed=13.8x    frame= 6157 fps=331 q=-0.0 size=N/A time=00:04:16.79 bitrate=N/A speed=13.8x    frame= 6345 fps=332 q=-0.0 size=N/A time=00:04:24.63 bitrate=N/A speed=13.9x    frame= 6530 fps=333 q=-0.0 size=N/A time=00:04:32.35 bitrate=N/A speed=13.9x    frame= 6714 fps=334 q=-0.0 size=N/A time=00:04:40.02 bitrate=N/A speed=13.9x    frame= 6903 fps=334 q=-0.0 size=N/A time=00:04:47.91 bitrate=N/A speed=13.9x    frame= 7071 fps=334 q=-0.0 size=N/A time=00:04:54.91 bitrate=N/A speed=13.9x    frame= 7248 fps=334 q=-0.0 size=N/A time=00:05:02.30 bitrate=N/A speed=13.9x    frame= 7425 fps=334 q=-0.0 size=N/A time=00:05:09.68 bitrate=N/A speed=13.9x    frame= 7608 fps=335 q=-0.0 size=N/A time=00:05:17.31 bitrate=N/A speed=  14x    frame= 7785 fps=335 q=-0.0 size=N/A time=00:05:24.69 bitrate=N/A speed=  14x    frame= 7971 fps=336 q=-0.0 size=N/A time=00:05:32.45 bitrate=N/A speed=  14x    frame= 8160 fps=336 q=-0.0 size=N/A time=00:05:40.34 bitrate=N/A speed=  14x    frame= 8345 fps=337 q=-0.0 size=N/A time=00:05:48.05 bitrate=N/A speed=  14x    frame= 8530 fps=337 q=-0.0 size=N/A time=00:05:55.77 bitrate=N/A speed=14.1x    frame= 8714 fps=337 q=-0.0 size=N/A time=00:06:03.44 bitrate=N/A speed=14.1x    frame= 8893 fps=338 q=-0.0 size=N/A time=00:06:10.91 bitrate=N/A speed=14.1x    frame= 9079 fps=338 q=-0.0 size=N/A time=00:06:18.66 bitrate=N/A speed=14.1x    frame= 9264 fps=338 q=-0.0 size=N/A time=00:06:26.38 bitrate=N/A speed=14.1x    frame= 9448 fps=339 q=-0.0 size=N/A time=00:06:34.06 bitrate=N/A speed=14.1x    frame= 9636 fps=339 q=-0.0 size=N/A time=00:06:41.90 bitrate=N/A speed=14.2x    frame= 9833 fps=340 q=-0.0 size=N/A time=00:06:50.11 bitrate=N/A speed=14.2x    frame=10016 fps=340 q=-0.0 size=N/A time=00:06:57.75 bitrate=N/A speed=14.2x    frame=10199 fps=341 q=-0.0 size=N/A time=00:07:05.38 bitrate=N/A speed=14.2x    frame=10382 fps=341 q=-0.0 size=N/A time=00:07:13.01 bitrate=N/A speed=14.2x    frame=10572 fps=341 q=-0.0 size=N/A time=00:07:20.94 bitrate=N/A speed=14.2x    frame=10759 fps=342 q=-0.0 size=N/A time=00:07:28.73 bitrate=N/A speed=14.2x    frame=10942 fps=342 q=-0.0 size=N/A time=00:07:36.37 bitrate=N/A speed=14.3x    frame=11132 fps=342 q=-0.0 size=N/A time=00:07:44.29 bitrate=N/A speed=14.3x    frame=11323 fps=343 q=-0.0 size=N/A time=00:07:52.26 bitrate=N/A speed=14.3x    frame=11507 fps=343 q=-0.0 size=N/A time=00:07:59.93 bitrate=N/A speed=14.3x    frame=11695 fps=343 q=-0.0 size=N/A time=00:08:07.77 bitrate=N/A speed=14.3x    frame=11888 fps=343 q=-0.0 size=N/A time=00:08:15.82 bitrate=N/A speed=14.3x    frame=12068 fps=344 q=-0.0 size=N/A time=00:08:23.33 bitrate=N/A speed=14.3x    frame=12256 fps=344 q=-0.0 size=N/A time=00:08:31.17 bitrate=N/A speed=14.3x    frame=12451 fps=344 q=-0.0 size=N/A time=00:08:39.31 bitrate=N/A speed=14.4x    frame=12643 fps=345 q=-0.0 size=N/A time=00:08:47.31 bitrate=N/A speed=14.4x    frame=12826 fps=345 q=-0.0 size=N/A time=00:08:54.95 bitrate=N/A speed=14.4x    frame=12999 fps=345 q=-0.0 size=N/A time=00:09:02.16 bitrate=N/A speed=14.4x    frame=13198 fps=345 q=-0.0 size=N/A time=00:09:10.46 bitrate=N/A speed=14.4x    frame=13378 fps=345 q=-0.0 size=N/A time=00:09:17.97 bitrate=N/A speed=14.4x    frame=13565 fps=346 q=-0.0 size=N/A time=00:09:25.77 bitrate=N/A speed=14.4x    frame=13758 fps=346 q=-0.0 size=N/A time=00:09:33.82 bitrate=N/A speed=14.4x    frame=13937 fps=346 q=-0.0 size=N/A time=00:09:41.28 bitrate=N/A speed=14.4x    frame=14126 fps=346 q=-0.0 size=N/A time=00:09:49.17 bitrate=N/A speed=14.4x    frame=14304 fps=346 q=-0.0 size=N/A time=00:09:56.59 bitrate=N/A speed=14.4x    frame=14486 fps=346 q=-0.0 size=N/A time=00:10:04.18 bitrate=N/A speed=14.4x    frame=14683 fps=347 q=-0.0 size=N/A time=00:10:12.40 bitrate=N/A speed=14.5x    frame=14865 fps=347 q=-0.0 size=N/A time=00:10:19.99 bitrate=N/A speed=14.5x    frame=15047 fps=347 q=-0.0 size=N/A time=00:10:27.58 bitrate=N/A speed=14.5x    frame=15234 fps=347 q=-0.0 size=N/A time=00:10:35.38 bitrate=N/A speed=14.5x    frame=15411 fps=347 q=-0.0 size=N/A time=00:10:42.76 bitrate=N/A speed=14.5x    frame=15595 fps=347 q=-0.0 size=N/A time=00:10:50.44 bitrate=N/A speed=14.5x    frame=15784 fps=347 q=-0.0 size=N/A time=00:10:58.32 bitrate=N/A speed=14.5x    frame=15973 fps=347 q=-0.0 size=N/A time=00:11:06.20 bitrate=N/A speed=14.5x    frame=16160 fps=348 q=-0.0 size=N/A time=00:11:14.00 bitrate=N/A speed=14.5x    frame=16344 fps=348 q=-0.0 size=N/A time=00:11:21.68 bitrate=N/A speed=14.5x    frame=16529 fps=348 q=-0.0 size=N/A time=00:11:29.39 bitrate=N/A speed=14.5x    frame=16717 fps=348 q=-0.0 size=N/A time=00:11:37.23 bitrate=N/A speed=14.5x    frame=16905 fps=348 q=-0.0 size=N/A time=00:11:45.07 bitrate=N/A speed=14.5x    frame=17073 fps=348 q=-0.0 size=N/A time=00:11:52.08 bitrate=N/A speed=14.5x    frame=17200 fps=347 q=-0.0 size=N/A time=00:11:57.38 bitrate=N/A speed=14.5x    frame=17329 fps=346 q=-0.0 size=N/A time=00:12:02.76 bitrate=N/A speed=14.4x    frame=17492 fps=346 q=-0.0 size=N/A time=00:12:09.56 bitrate=N/A speed=14.4x    frame=17676 fps=346 q=-0.0 size=N/A time=00:12:17.23 bitrate=N/A speed=14.4x    frame=17862 fps=346 q=-0.0 size=N/A time=00:12:24.99 bitrate=N/A speed=14.4x    frame=18052 fps=346 q=-0.0 size=N/A time=00:12:32.91 bitrate=N/A speed=14.4x    frame=18237 fps=346 q=-0.0 size=N/A time=00:12:40.63 bitrate=N/A speed=14.4x    frame=18426 fps=346 q=-0.0 size=N/A time=00:12:48.51 bitrate=N/A speed=14.5x    frame=18605 fps=346 q=-0.0 size=N/A time=00:12:55.98 bitrate=N/A speed=14.4x    frame=18788 fps=347 q=-0.0 size=N/A time=00:13:03.61 bitrate=N/A speed=14.5x    frame=18970 fps=347 q=-0.0 size=N/A time=00:13:11.20 bitrate=N/A speed=14.5x    frame=19157 fps=347 q=-0.0 size=N/A time=00:13:19.00 bitrate=N/A speed=14.5x    frame=19330 fps=347 q=-0.0 size=N/A time=00:13:26.22 bitrate=N/A speed=14.5x    frame=19519 fps=347 q=-0.0 size=N/A time=00:13:34.10 bitrate=N/A speed=14.5x    frame=19700 fps=347 q=-0.0 size=N/A time=00:13:41.65 bitrate=N/A speed=14.5x    frame=19879 fps=347 q=-0.0 size=N/A time=00:13:49.11 bitrate=N/A speed=14.5x    frame=20059 fps=347 q=-0.0 size=N/A time=00:13:56.62 bitrate=N/A speed=14.5x    frame=20234 fps=347 q=-0.0 size=N/A time=00:14:03.92 bitrate=N/A speed=14.5x    frame=20419 fps=347 q=-0.0 size=N/A time=00:14:11.64 bitrate=N/A speed=14.5x    frame=20597 fps=347 q=-0.0 size=N/A time=00:14:19.06 bitrate=N/A speed=14.5x    frame=20774 fps=347 q=-0.0 size=N/A time=00:14:26.44 bitrate=N/A speed=14.5x    frame=20964 fps=347 q=-0.0 size=N/A time=00:14:34.37 bitrate=N/A speed=14.5x    frame=21147 fps=347 q=-0.0 size=N/A time=00:14:42.00 bitrate=N/A speed=14.5x    frame=21328 fps=347 q=-0.0 size=N/A time=00:14:49.55 bitrate=N/A speed=14.5x    frame=21515 fps=347 q=-0.0 size=N/A time=00:14:57.35 bitrate=N/A speed=14.5x    frame=21698 fps=347 q=-0.0 size=N/A time=00:15:04.98 bitrate=N/A speed=14.5x    frame=21876 fps=347 q=-0.0 size=N/A time=00:15:12.41 bitrate=N/A speed=14.5x    frame=22056 fps=347 q=-0.0 size=N/A time=00:15:19.91 bitrate=N/A speed=14.5x    frame=22236 fps=347 q=-0.0 size=N/A time=00:15:27.42 bitrate=N/A speed=14.5x    frame=22416 fps=347 q=-0.0 size=N/A time=00:15:34.93 bitrate=N/A speed=14.5x    frame=22598 fps=347 q=-0.0 size=N/A time=00:15:42.52 bitrate=N/A speed=14.5x    frame=22784 fps=347 q=-0.0 size=N/A time=00:15:50.28 bitrate=N/A speed=14.5x    frame=22962 fps=347 q=-0.0 size=N/A time=00:15:57.70 bitrate=N/A speed=14.5x    frame=23142 fps=347 q=-0.0 size=N/A time=00:16:05.21 bitrate=N/A speed=14.5x    frame=23323 fps=347 q=-0.0 size=N/A time=00:16:12.76 bitrate=N/A speed=14.5x    frame=23496 fps=347 q=-0.0 size=N/A time=00:16:19.97 bitrate=N/A speed=14.5x    frame=23673 fps=347 q=-0.0 size=N/A time=00:16:27.36 bitrate=N/A speed=14.5x    frame=23854 fps=347 q=-0.0 size=N/A time=00:16:34.91 bitrate=N/A speed=14.5x    frame=24026 fps=347 q=-0.0 size=N/A time=00:16:42.08 bitrate=N/A speed=14.5x    frame=24212 fps=347 q=-0.0 size=N/A time=00:16:49.84 bitrate=N/A speed=14.5x    frame=24400 fps=347 q=-0.0 size=N/A time=00:16:57.68 bitrate=N/A speed=14.5x    frame=24577 fps=347 q=-0.0 size=N/A time=00:17:05.06 bitrate=N/A speed=14.5x    frame=24767 fps=348 q=-0.0 size=N/A time=00:17:12.99 bitrate=N/A speed=14.5x    frame=24952 fps=348 q=-0.0 size=N/A time=00:17:20.70 bitrate=N/A speed=14.5x    frame=25144 fps=348 q=-0.0 size=N/A time=00:17:28.71 bitrate=N/A speed=14.5x    frame=25329 fps=348 q=-0.0 size=N/A time=00:17:36.43 bitrate=N/A speed=14.5x    frame=25512 fps=348 q=-0.0 size=N/A time=00:17:44.06 bitrate=N/A speed=14.5x    frame=25697 fps=348 q=-0.0 size=N/A time=00:17:51.77 bitrate=N/A speed=14.5x    frame=25896 fps=348 q=-0.0 size=N/A time=00:18:00.07 bitrate=N/A speed=14.5x    frame=26076 fps=348 q=-0.0 size=N/A time=00:18:07.58 bitrate=N/A speed=14.5x    frame=26256 fps=348 q=-0.0 size=N/A time=00:18:15.09 bitrate=N/A speed=14.5x    frame=26440 fps=348 q=-0.0 size=N/A time=00:18:22.76 bitrate=N/A speed=14.5x    frame=26624 fps=348 q=-0.0 size=N/A time=00:18:30.44 bitrate=N/A speed=14.5x    frame=26804 fps=348 q=-0.0 size=N/A time=00:18:37.95 bitrate=N/A speed=14.5x    frame=26985 fps=348 q=-0.0 size=N/A time=00:18:45.49 bitrate=N/A speed=14.5x    frame=27181 fps=349 q=-0.0 size=N/A time=00:18:53.67 bitrate=N/A speed=14.5x    frame=27371 fps=349 q=-0.0 size=N/A time=00:19:01.59 bitrate=N/A speed=14.5x    frame=27554 fps=349 q=-0.0 size=N/A time=00:19:09.23 bitrate=N/A speed=14.5x    frame=27728 fps=349 q=-0.0 size=N/A time=00:19:16.48 bitrate=N/A speed=14.5x    frame=27912 fps=349 q=-0.0 size=N/A time=00:19:24.16 bitrate=N/A speed=14.5x    frame=28094 fps=349 q=-0.0 size=N/A time=00:19:31.75 bitrate=N/A speed=14.5x    frame=28285 fps=349 q=-0.0 size=N/A time=00:19:39.72 bitrate=N/A speed=14.6x    frame=28472 fps=349 q=-0.0 size=N/A time=00:19:47.51 bitrate=N/A speed=14.6x    frame=28656 fps=349 q=-0.0 size=N/A time=00:19:55.19 bitrate=N/A speed=14.6x    frame=28847 fps=349 q=-0.0 size=N/A time=00:20:03.16 bitrate=N/A speed=14.6x    frame=29030 fps=349 q=-0.0 size=N/A time=00:20:10.79 bitrate=N/A speed=14.6x    frame=29215 fps=349 q=-0.0 size=N/A time=00:20:18.50 bitrate=N/A speed=14.6x    frame=29400 fps=349 q=-0.0 size=N/A time=00:20:26.22 bitrate=N/A speed=14.6x    frame=29589 fps=349 q=-0.0 size=N/A time=00:20:34.10 bitrate=N/A speed=14.6x    frame=29768 fps=349 q=-0.0 size=N/A time=00:20:41.57 bitrate=N/A speed=14.6x    frame=29956 fps=349 q=-0.0 size=N/A time=00:20:49.41 bitrate=N/A speed=14.6x    frame=30134 fps=349 q=-0.0 size=N/A time=00:20:56.83 bitrate=N/A speed=14.6x    frame=30319 fps=350 q=-0.0 size=N/A time=00:21:04.55 bitrate=N/A speed=14.6x    frame=30504 fps=350 q=-0.0 size=N/A time=00:21:12.27 bitrate=N/A speed=14.6x    frame=30695 fps=350 q=-0.0 size=N/A time=00:21:20.23 bitrate=N/A speed=14.6x    frame=30882 fps=350 q=-0.0 size=N/A time=00:21:28.03 bitrate=N/A speed=14.6x    frame=31063 fps=350 q=-0.0 size=N/A time=00:21:35.58 bitrate=N/A speed=14.6x    frame=31254 fps=350 q=-0.0 size=N/A time=00:21:43.55 bitrate=N/A speed=14.6x    frame=31441 fps=350 q=-0.0 size=N/A time=00:21:51.35 bitrate=N/A speed=14.6x    frame=31626 fps=350 q=-0.0 size=N/A time=00:21:59.06 bitrate=N/A speed=14.6x    frame=31809 fps=350 q=-0.0 size=N/A time=00:22:06.70 bitrate=N/A speed=14.6x    frame=31992 fps=350 q=-0.0 size=N/A time=00:22:14.33 bitrate=N/A speed=14.6x    frame=32176 fps=350 q=-0.0 size=N/A time=00:22:22.00 bitrate=N/A speed=14.6x    frame=32363 fps=350 q=-0.0 size=N/A time=00:22:29.80 bitrate=N/A speed=14.6x    frame=32544 fps=350 q=-0.0 size=N/A time=00:22:37.35 bitrate=N/A speed=14.6x    frame=32734 fps=350 q=-0.0 size=N/A time=00:22:45.28 bitrate=N/A speed=14.6x    frame=32912 fps=350 q=-0.0 size=N/A time=00:22:52.70 bitrate=N/A speed=14.6x    frame=33091 fps=350 q=-0.0 size=N/A time=00:23:00.17 bitrate=N/A speed=14.6x    frame=33269 fps=350 q=-0.0 size=N/A time=00:23:07.59 bitrate=N/A speed=14.6x    frame=33459 fps=350 q=-0.0 size=N/A time=00:23:15.51 bitrate=N/A speed=14.6x    frame=33645 fps=350 q=-0.0 size=N/A time=00:23:23.27 bitrate=N/A speed=14.6x    frame=33825 fps=350 q=-0.0 size=N/A time=00:23:30.78 bitrate=N/A speed=14.6x    frame=33994 fps=350 q=-0.0 size=N/A time=00:23:37.83 bitrate=N/A speed=14.6x    frame=34175 fps=350 q=-0.0 size=N/A time=00:23:45.38 bitrate=N/A speed=14.6x    [Parsed_ssim_16 @ 0000021b8c79fac0] SSIM Y:0.994182 (22.352291) U:0.995209 (23.196131) V:0.994825 (22.861078) All:0.994460 (22.565269)
[out#0/null @ 0000021b8c08ae00] video:14726KiB audio:268036KiB subtitle:0KiB other streams:0KiB global headers:0KiB muxing overhead: unknown
frame=34272 fps=350 q=-0.0 Lsize=N/A time=00:23:49.42 bitrate=N/A speed=14.6x    
